<?xml version="1.0" encoding="UTF-8"?><svg id="Layer_2" xmlns="http://www.w3.org/2000/svg" viewBox="0 0 755.46 932.01"><defs><style>.cls-1{fill:#00a5ff;}.cls-1,.cls-2{stroke-width:0px;}.cls-2{fill:#fff;}</style></defs><g id="Pop_Up"><rect class="cls-1" width="755.46" height="932.01"/><path class="cls-2" d="m611.05,849.56c.27.62.95,1.17,1.08,1.79.13.63.35,1.26.41,1.89.06.63-.13,1.27-.06,1.9.06.62-.27,1.26-.21,1.89.06.62.18,1.25.23,1.87.05.62.66,1.23.71,1.86.05.63-.42,1.26-.37,1.89.04.63-.05,1.25-.02,1.88.04.63.36,1.24.39,1.87.03.63.3,1.25.32,1.87.02.63-.02,1.25-.02,1.88s-.07,1.25-.07,1.88c0,.63-.19,1.25-.2,1.88,0,.63.15,1.25.13,1.88-.02.63-.2,1.25-.23,1.87-.03.63.04,1.25,0,1.88-.04.63-.11,1.25-.16,1.87-.05.62-.13,1.25-.18,1.87-.06.59.05,1.22-.01,1.88-.05.61.01,1.24-.04,1.88-.05.62-.41,1.24-.47,1.87-.06.63-.37,1.25-.45,1.87-.08.64.27,1.3.16,1.9-.12.66-.53,1.26-.69,1.84-.02.1-.12.28-.27.27-.13-.01-.09-.19-.1-.27-.16-.58-.24-1.21-.36-1.87-.11-.6-.6-1.21-.69-1.85-.08-.62.12-1.26.06-1.89-.06-.63.11-1.27.06-1.89-.06-.64-.57-1.26-.62-1.87-.06-.66-.05-1.29-.11-1.88-.06-.68.12-1.37.07-2.05-.05-.68-.11-1.36-.15-2.04-.04-.68-.42-1.36-.45-2.04-.03-.68-.1-1.37-.12-2.05-.02-.68-.06-1.37-.07-2.05,0-.68.56-1.37.56-2.05,0-.68-.24-1.37-.23-2.05.01-.68.05-1.36.08-2.05.03-.68,0-1.37.04-2.05.04-.68.18-1.36.23-2.04.05-.68.28-1.36.34-2.04.05-.63-.19-1.26-.14-1.89.05-.63.26-1.25.32-1.87.06-.63-.27-1.26-.21-1.89.07-.63.26-1.25.32-1.88.06-.63.28-1.25.41-1.88.13-.62.47-1.21.73-1.83.04-.1,0-.16.16-.13.11.02.18.02.21.08-.14.05-.31.07-.31.07Z"/><path class="cls-2" d="m598.67,872.07c.34-.27.64-.95.98-1.08.34-.13.69-.35,1.03-.41.35-.06.69.13,1.04.06.34-.06.69.27,1.04.21.34-.06.68-.18,1.03-.23.34-.05.68-.66,1.02-.71.34-.05.69.42,1.04.37.34-.04.69.05,1.03.02.34-.04.68-.36,1.03-.39.34-.03.69-.3,1.03-.32.34-.02.69.02,1.03.02.34,0,.69.07,1.03.07.34,0,.69.19,1.03.2s.69-.15,1.03-.13c.34.02.69.2,1.03.23.34.03.69-.04,1.03,0,.34.04.69.11,1.03.16.34.05.69.13,1.03.18.32.06.67-.05,1.03.01.33.05.68-.01,1.03.04.34.05.68.41,1.03.47.35.06.69.37,1.02.45.35.08.71-.27,1.04-.16.36.12.69.53,1.01.69.05.02.15.12.15.27,0,.13-.11.09-.15.11-.32.16-.66.24-1.02.36-.33.11-.66.6-1.02.69-.34.08-.69-.12-1.04-.06-.35.06-.7-.11-1.04-.06-.35.06-.69.57-1.02.62-.36.06-.71.05-1.03.11-.37.06-.75-.12-1.13-.07-.37.05-.75.11-1.12.15-.37.04-.75.42-1.12.45-.37.03-.75.1-1.12.12-.37.02-.75.06-1.12.07s-.75-.56-1.12-.56c-.37,0-.75.24-1.12.23s-.75-.05-1.12-.08c-.37-.03-.75,0-1.12-.04s-.75-.18-1.12-.23c-.37-.05-.74-.28-1.12-.34-.34-.05-.69.19-1.03.14-.34-.05-.68-.26-1.03-.32-.34-.06-.69.27-1.04.21-.35-.07-.69-.26-1.03-.32-.34-.06-.69-.28-1.03-.41-.34-.13-.66-.47-1-.73-.05-.04-.09,0-.07-.16,0-.11.01-.18.05-.21.03.14.04.31.04.31Z"/><path class="cls-2" d="m646.11,118.67c.27.62.95,1.17,1.08,1.79.13.63.35,1.26.41,1.89.06.63-.13,1.27-.06,1.9.06.62-.27,1.26-.21,1.89.06.62.18,1.25.23,1.87.05.62.66,1.23.71,1.86.05.63-.42,1.26-.37,1.89.04.63-.05,1.25-.02,1.88.04.63.36,1.24.39,1.87.03.63.3,1.25.32,1.87.02.63-.02,1.25-.02,1.88,0,.63-.07,1.25-.07,1.88,0,.63-.19,1.25-.2,1.88,0,.63.15,1.25.13,1.88-.02.63-.2,1.25-.23,1.87-.03.63.04,1.25,0,1.88-.04.63-.11,1.25-.16,1.87-.05.62-.13,1.25-.18,1.87-.06.59.05,1.22-.01,1.88-.05.61.01,1.24-.04,1.88-.05.62-.41,1.24-.47,1.87-.06.63-.37,1.25-.45,1.87-.08.64.27,1.3.16,1.9-.12.66-.53,1.26-.69,1.84-.02.1-.12.28-.27.27-.13-.01-.09-.19-.11-.27-.16-.58-.24-1.21-.36-1.87-.11-.6-.6-1.21-.69-1.85-.08-.62.12-1.26.06-1.89-.06-.63.11-1.27.06-1.89-.06-.64-.57-1.26-.62-1.87-.06-.66-.05-1.29-.11-1.88-.06-.68.12-1.37.07-2.05-.05-.68-.11-1.36-.15-2.05-.04-.68-.42-1.36-.45-2.04-.03-.68-.1-1.37-.12-2.05-.02-.68-.06-1.37-.07-2.05s.56-1.37.56-2.05c0-.68-.24-1.37-.23-2.05.01-.68.05-1.36.08-2.05.03-.68,0-1.37.04-2.05.04-.68.18-1.36.23-2.04.05-.68.28-1.36.34-2.04.05-.63-.19-1.26-.14-1.89.05-.63.26-1.25.32-1.87.06-.63-.27-1.26-.21-1.89.07-.63.26-1.25.32-1.88.06-.63.28-1.25.41-1.88.13-.62.47-1.21.73-1.83.04-.1,0-.16.16-.13.11.02.18.02.21.08-.14.05-.31.07-.31.07Z"/><path class="cls-2" d="m633.72,141.19c.34-.27.64-.95.98-1.08.34-.13.69-.35,1.03-.41.35-.06.69.13,1.04.06.34-.06.69.27,1.04.21.34-.06.68-.18,1.03-.23.34-.05.68-.66,1.02-.71.34-.05.69.42,1.04.37s.69.05,1.03.02c.34-.04.68-.36,1.03-.39.34-.03.69-.3,1.03-.32.34-.02.69.02,1.03.02s.69.07,1.03.07c.34,0,.69.19,1.03.2.34,0,.69-.15,1.03-.13.34.02.69.2,1.03.23.34.03.69-.04,1.03,0s.69.11,1.03.16c.34.05.69.13,1.03.18.32.06.67-.05,1.03.01.33.05.68-.01,1.03.04.34.05.68.41,1.03.47.35.06.69.37,1.02.45.35.08.71-.27,1.04-.16.36.12.69.53,1.01.69.05.02.15.12.15.27,0,.13-.11.09-.15.11-.32.16-.66.24-1.02.36-.33.11-.66.6-1.02.69-.34.08-.69-.12-1.04-.06-.35.06-.7-.11-1.04-.06-.35.06-.69.57-1.02.62-.36.06-.71.05-1.03.11-.37.06-.75-.12-1.13-.07-.37.05-.75.11-1.12.15-.37.04-.75.42-1.12.45-.37.03-.75.1-1.12.12s-.75.06-1.12.07c-.37,0-.75-.56-1.12-.56s-.75.24-1.12.23c-.37-.01-.75-.05-1.12-.08-.37-.03-.75,0-1.12-.04-.37-.04-.75-.18-1.12-.23-.37-.05-.74-.28-1.12-.34-.34-.05-.69.19-1.03.14-.34-.05-.68-.26-1.03-.32-.34-.06-.69.27-1.04.21-.35-.07-.69-.26-1.03-.32-.34-.06-.69-.28-1.03-.41-.34-.13-.66-.47-1-.73-.05-.04-.09,0-.07-.16,0-.11.01-.18.05-.21.03.14.04.31.04.31Z"/><path class="cls-2" d="m154.28,83.65c.27.66.95,1.25,1.08,1.91.13.67.35,1.34.41,2.01.06.67-.13,1.35-.06,2.02.06.67-.27,1.35-.21,2.01.06.67.18,1.33.23,2,.05.67.66,1.32.71,1.98.05.67-.42,1.35-.37,2.02.04.67-.05,1.34-.02,2,.04.67.36,1.33.39,2,.03.67.3,1.33.32,2,.02.67-.02,1.34-.02,2,0,.67-.07,1.34-.07,2,0,.67-.19,1.33-.2,2,0,.67.15,1.34.13,2-.02.67-.2,1.33-.23,2-.03.67.04,1.34,0,2-.04.67-.11,1.33-.16,2-.05.67-.13,1.33-.18,2-.06.63.05,1.31-.01,2.01-.05.65.01,1.32-.04,2.01-.05.66-.41,1.32-.47,2-.06.67-.37,1.33-.45,1.99-.08.68.27,1.38.16,2.03-.12.7-.53,1.35-.69,1.97-.02.1-.12.3-.27.28-.13-.01-.09-.21-.11-.29-.16-.62-.24-1.29-.36-1.99-.11-.64-.6-1.29-.69-1.98-.08-.66.12-1.34.06-2.02-.06-.67.11-1.35.06-2.01-.06-.69-.57-1.34-.62-1.99-.06-.7-.05-1.38-.11-2.01-.06-.73.12-1.46.07-2.19-.05-.73-.11-1.45-.15-2.18-.04-.73-.42-1.45-.45-2.18-.03-.73-.1-1.46-.12-2.19-.02-.73-.06-1.46-.07-2.19,0-.73.56-1.46.56-2.19,0-.73-.24-1.46-.23-2.18.01-.73.05-1.46.08-2.18.03-.73,0-1.46.04-2.18.04-.73.18-1.45.23-2.18.05-.73.28-1.45.34-2.18.05-.67-.19-1.34-.14-2.01.05-.67.26-1.33.32-2,.06-.67-.27-1.35-.21-2.02.07-.67.26-1.34.32-2.01.06-.67.28-1.33.41-2,.13-.66.47-1.29.73-1.95.04-.1,0-.17.16-.14.11.02.18.03.21.09-.14.06-.31.07-.31.07Z"/><path class="cls-2" d="m141.07,107.68c.36-.27.69-.95,1.05-1.08.37-.13.74-.35,1.1-.41.37-.06.74.13,1.11.06.37-.06.74.27,1.11.21.37-.06.73-.18,1.1-.23.37-.05.72-.66,1.09-.71.37-.05.74.42,1.11.37s.73.05,1.1.02c.37-.04.73-.36,1.09-.39.37-.03.73-.3,1.1-.32.37-.02.73.02,1.1.02.37,0,.73.07,1.1.07.37,0,.73.19,1.1.2.37,0,.73-.15,1.1-.13.37.02.73.2,1.1.23.37.03.73-.04,1.1,0,.37.04.73.11,1.1.16.37.05.73.13,1.1.18.34.06.72-.05,1.1.01.36.05.73-.01,1.1.04.36.05.73.41,1.09.47.37.06.73.37,1.09.45.38.08.76-.27,1.11-.16.38.12.74.53,1.08.69.06.02.16.12.16.27,0,.13-.11.09-.16.11-.34.16-.71.24-1.09.36-.35.11-.71.6-1.08.69-.36.08-.74-.12-1.11-.06-.37.06-.74-.11-1.11-.06-.38.06-.74.57-1.09.62-.39.06-.76.05-1.1.11-.4.06-.8-.12-1.2-.07-.4.05-.8.11-1.2.15-.4.04-.79.42-1.19.45-.4.03-.8.1-1.2.12s-.8.06-1.2.07c-.4,0-.8-.56-1.2-.56-.4,0-.8.24-1.2.23-.4-.01-.8-.05-1.2-.08-.4-.03-.8,0-1.2-.04-.4-.04-.8-.18-1.2-.23-.4-.05-.79-.28-1.19-.34-.37-.05-.74.19-1.1.14-.37-.05-.73-.26-1.1-.32-.37-.06-.74.27-1.11.21-.37-.07-.73-.26-1.1-.32-.37-.06-.73-.28-1.1-.41-.36-.13-.71-.47-1.07-.73-.06-.04-.09,0-.08-.16,0-.11.01-.18.05-.21.03.14.04.31.04.31Z"/><path class="cls-2" d="m130.56,779.18c.27.96.95,1.82,1.08,2.78.13.97.35,1.95.41,2.93.06.98-.13,1.97-.06,2.94.06.97-.27,1.96-.21,2.93.06.97.18,1.94.23,2.91.05.97.66,1.91.71,2.88s-.42,1.96-.37,2.93c.04.97-.05,1.94-.02,2.92.04.97.36,1.93.39,2.9.03.97.3,1.94.32,2.91.02.97-.02,1.95-.02,2.92,0,.97-.07,1.94-.07,2.92,0,.97-.19,1.94-.2,2.91,0,.97.15,1.94.13,2.92-.02.97-.2,1.94-.23,2.91-.03.97.04,1.94,0,2.92-.04.97-.11,1.94-.16,2.91-.05.97-.13,1.94-.18,2.91-.06.91.05,1.9-.01,2.92-.05.94.01,1.93-.04,2.92-.05.96-.41,1.93-.47,2.9-.06.98-.37,1.94-.45,2.9-.08,1,.27,2.01.16,2.95-.12,1.02-.53,1.96-.69,2.86-.02.15-.12.44-.27.41-.13-.02-.09-.3-.11-.42-.16-.9-.24-1.87-.36-2.9-.11-.94-.6-1.88-.69-2.87-.08-.96.12-1.96.06-2.94-.06-.98.11-1.97.06-2.93-.06-1-.57-1.95-.62-2.9-.06-1.03-.05-2.01-.11-2.92-.06-1.06.12-2.13.07-3.19-.05-1.06-.11-2.12-.15-3.17-.04-1.06-.42-2.11-.45-3.17-.03-1.06-.1-2.12-.12-3.18-.02-1.06-.06-2.12-.07-3.18s.56-2.12.56-3.18c0-1.06-.24-2.12-.23-3.18.01-1.06.05-2.12.08-3.18.03-1.06,0-2.12.04-3.18.04-1.06.18-2.11.23-3.17.05-1.06.28-2.11.34-3.17.05-.97-.19-1.96-.14-2.93.05-.97.26-1.93.32-2.9.06-.97-.27-1.96-.21-2.93.07-.98.26-1.94.32-2.92.06-.97.28-1.94.41-2.91.13-.96.47-1.88.73-2.84.04-.15,0-.24.16-.21.11.03.18.04.21.13-.14.08-.31.11-.31.11Z"/><path class="cls-2" d="m111.35,814.15c.53-.27,1-.95,1.53-1.08.53-.13,1.07-.35,1.61-.41.54-.06,1.08.13,1.61.06.53-.06,1.08.27,1.61.21.53-.06,1.06-.18,1.59-.23s1.05-.66,1.58-.71c.53-.05,1.08.42,1.61.37.53-.04,1.07.05,1.6.02s1.06-.36,1.59-.39c.53-.03,1.06-.3,1.6-.32s1.07.02,1.6.02c.53,0,1.07.07,1.6.07.53,0,1.07.19,1.6.2.53,0,1.07-.15,1.6-.13.53.02,1.06.2,1.6.23.53.03,1.07-.04,1.6,0s1.06.11,1.6.16c.53.05,1.06.13,1.6.18.5.06,1.04-.05,1.6.01.52.05,1.06-.01,1.6.04.53.05,1.06.41,1.59.47.54.06,1.06.37,1.59.45.55.08,1.1-.27,1.62-.16.56.12,1.08.53,1.57.69.08.02.24.12.23.27-.01.13-.17.09-.23.11-.49.16-1.03.24-1.59.36-.51.11-1.03.6-1.58.69-.53.08-1.07-.12-1.61-.06-.54.06-1.08-.11-1.61-.06-.55.06-1.07.57-1.59.62-.56.06-1.1.05-1.6.11-.58.06-1.17-.12-1.75-.07-.58.05-1.16.11-1.74.15-.58.04-1.16.42-1.74.45s-1.16.1-1.74.12c-.58.02-1.16.06-1.75.07-.58,0-1.16-.56-1.74-.56-.58,0-1.16.24-1.74.23-.58-.01-1.16-.05-1.74-.08-.58-.03-1.16,0-1.74-.04-.58-.04-1.16-.18-1.74-.23-.58-.05-1.16-.28-1.74-.34-.53-.05-1.07.19-1.61.14-.53-.05-1.06-.26-1.59-.32-.53-.06-1.08.27-1.61.21-.54-.07-1.07-.26-1.6-.32-.53-.06-1.06-.28-1.6-.41-.53-.13-1.03-.47-1.56-.73-.08-.04-.13,0-.11-.16.01-.11.02-.18.07-.21.05.14.06.31.06.31Z"/><line class="cls-2" x1="120.11" y1="803.73" x2="140.97" y2="824.6"/><path class="cls-2" d="m120.19,803.79c.47.1,1.21-.13,1.59.06.38.2.83.33,1.16.57.33.25.49.67.83.91.33.24.39.77.72,1.02.33.25.7.45,1.02.7.33.25,1.03.1,1.36.35.32.25.29.88.6,1.13.32.26.54.61.85.87s.83.32,1.13.59c.31.27.79.36,1.09.63.3.28.56.59.85.88.29.28.53.62.81.92.29.29.44.71.72,1,.28.29.68.47.95.77.27.3.43.72.7,1.03.26.31.6.55.86.87.26.32.5.65.75.97s.49.66.73.99c.23.31.59.53.86.87.24.32.58.56.84.9.25.32.28.86.53,1.19.24.34.32.83.54,1.18.24.36.79.41.99.76.22.39.21.95.36,1.33.03.06.05.21-.07.32-.1.08-.15-.03-.2-.05-.38-.15-.72-.39-1.11-.6-.35-.2-.98-.13-1.34-.36-.34-.23-.49-.67-.83-.91-.34-.24-.5-.66-.83-.91-.34-.26-.98-.17-1.3-.42-.34-.26-.63-.56-.94-.79-.36-.27-.54-.72-.89-.99-.35-.28-.7-.55-1.05-.83s-.92-.33-1.26-.62c-.34-.29-.7-.56-1.03-.86-.33-.3-.67-.59-.99-.89-.32-.31-.23-1.02-.54-1.34-.31-.32-.8-.46-1.1-.78s-.59-.66-.89-1c-.3-.33-.63-.63-.92-.97-.29-.34-.5-.76-.78-1.1-.28-.35-.42-.82-.69-1.18-.25-.32-.71-.45-.96-.77-.25-.33-.39-.76-.63-1.09-.25-.33-.77-.39-1.01-.72-.24-.34-.39-.76-.64-1.09-.25-.33-.38-.77-.57-1.15-.19-.38-.23-.89-.32-1.36-.01-.07-.07-.07.05-.17.08-.07.14-.12.18-.11-.08.13-.18.25-.18.25Z"/><line class="cls-2" x1="120.11" y1="824.6" x2="140.97" y2="803.73"/><path class="cls-2" d="m120.16,824.51c.1-.47-.13-1.21.06-1.59.2-.38.33-.83.57-1.16.25-.33.67-.49.91-.83.24-.33.77-.39,1.02-.72s.45-.7.7-1.02c.25-.33.1-1.03.35-1.36.25-.32.88-.29,1.13-.6s.61-.54.87-.85c.26-.31.32-.83.59-1.13.27-.31.36-.79.63-1.09.28-.3.59-.56.88-.85.28-.29.62-.53.92-.81.28-.29.71-.44,1-.72.29-.28.47-.68.77-.95.3-.27.72-.43,1.03-.7.31-.26.55-.6.87-.86.32-.26.65-.5.97-.75.32-.25.66-.49.99-.73.31-.23.53-.59.87-.86.32-.24.56-.58.9-.84.32-.25.86-.28,1.19-.53.34-.24.83-.32,1.18-.54.36-.24.41-.79.76-.99.39-.22.95-.21,1.33-.36.06-.03.21-.05.32.07.08.1-.03.15-.05.2-.15.38-.39.72-.6,1.11-.2.35-.13.98-.36,1.34-.23.34-.67.49-.91.83-.24.34-.66.5-.91.83-.26.34-.17.98-.42,1.3-.26.34-.56.63-.79.94-.27.36-.72.54-.99.89-.28.35-.55.7-.83,1.05-.28.34-.33.92-.62,1.26-.29.34-.56.7-.86,1.03-.3.33-.58.67-.89.99-.31.32-1.02.23-1.34.54s-.46.8-.78,1.1c-.32.3-.66.59-1,.89-.33.3-.63.63-.97.92-.34.29-.76.5-1.1.78-.35.28-.82.42-1.18.69-.32.25-.45.71-.77.96-.33.25-.76.39-1.09.63-.33.25-.39.77-.72,1.01-.34.24-.76.39-1.09.64-.33.25-.77.38-1.15.57-.38.19-.89.23-1.36.32-.07.01-.07.07-.17-.05-.07-.08-.12-.14-.11-.18.13.08.25.18.25.18Z"/><path class="cls-2" d="m579.27,37.48c.27.96.95,1.82,1.08,2.78.13.97.35,1.95.41,2.93.06.98-.13,1.97-.06,2.94.06.97-.27,1.96-.21,2.93.06.97.18,1.94.23,2.91.05.97.66,1.91.71,2.88.05.97-.42,1.96-.37,2.93.04.97-.05,1.94-.02,2.92.04.97.36,1.93.39,2.9.03.97.3,1.94.32,2.91.02.97-.02,1.95-.02,2.92,0,.97-.07,1.94-.07,2.92,0,.97-.19,1.94-.2,2.91-.01.97.15,1.94.13,2.92-.02.97-.2,1.94-.23,2.91-.03.97.04,1.94,0,2.92-.04.97-.11,1.94-.16,2.91-.05.97-.13,1.94-.18,2.91-.06.91.05,1.9-.01,2.92-.05.94.01,1.93-.04,2.92-.05.96-.41,1.93-.47,2.9-.06.98-.37,1.94-.45,2.9-.08,1,.27,2.01.16,2.95-.12,1.02-.53,1.96-.69,2.86-.02.15-.12.44-.27.41-.13-.02-.09-.3-.11-.42-.16-.9-.24-1.87-.36-2.9-.11-.94-.6-1.88-.69-2.87-.08-.96.12-1.96.06-2.94-.06-.98.11-1.97.06-2.93-.06-1-.57-1.95-.62-2.9-.06-1.03-.05-2.01-.11-2.92-.06-1.06.12-2.13.07-3.19-.05-1.06-.11-2.12-.15-3.17-.04-1.06-.42-2.11-.45-3.17-.03-1.06-.1-2.12-.12-3.18-.02-1.06-.06-2.12-.07-3.18,0-1.06.56-2.12.56-3.18,0-1.06-.24-2.12-.23-3.18.01-1.06.05-2.12.08-3.18.03-1.06,0-2.12.04-3.18.04-1.06.18-2.11.23-3.17.05-1.06.28-2.11.34-3.17.05-.97-.19-1.96-.14-2.93.05-.97.26-1.93.32-2.9.06-.97-.27-1.96-.21-2.93.07-.98.26-1.94.32-2.92.06-.97.28-1.94.41-2.91.13-.96.47-1.88.73-2.84.04-.15,0-.24.16-.21.11.03.18.04.21.13-.14.08-.31.11-.31.11Z"/><path class="cls-2" d="m560.06,72.45c.53-.27,1-.95,1.53-1.08.53-.13,1.07-.35,1.61-.41.54-.06,1.08.13,1.61.06.53-.06,1.08.27,1.61.21.53-.06,1.06-.18,1.59-.23.53-.05,1.05-.66,1.58-.71.53-.05,1.08.42,1.61.37.53-.04,1.07.05,1.6.02.53-.04,1.06-.36,1.59-.39.53-.03,1.06-.3,1.6-.32.53-.02,1.07.02,1.6.02s1.07.07,1.6.07c.53,0,1.07.19,1.6.2.53,0,1.07-.15,1.6-.13.53.02,1.06.2,1.6.23.53.03,1.07-.04,1.6,0,.53.04,1.06.11,1.6.16.53.05,1.06.13,1.6.18.5.06,1.04-.05,1.6.01.52.05,1.06-.01,1.6.04.53.05,1.06.41,1.59.47.54.06,1.06.37,1.59.45.55.08,1.1-.27,1.62-.16.56.12,1.08.53,1.57.69.08.02.24.12.23.27-.01.13-.17.09-.23.11-.49.16-1.03.24-1.59.36-.51.11-1.03.6-1.58.69-.53.08-1.07-.12-1.61-.06-.54.06-1.08-.11-1.61-.06-.55.06-1.07.57-1.59.62-.56.06-1.1.05-1.6.11-.58.06-1.17-.12-1.75-.07-.58.05-1.16.11-1.74.15-.58.04-1.16.42-1.74.45-.58.03-1.16.1-1.74.12-.58.02-1.16.06-1.74.07s-1.16-.56-1.74-.56-1.16.24-1.74.23c-.58-.01-1.16-.05-1.74-.08-.58-.03-1.16,0-1.74-.04-.58-.04-1.16-.18-1.74-.23-.58-.05-1.16-.28-1.74-.34-.53-.05-1.07.19-1.61.14-.53-.05-1.06-.26-1.59-.32-.53-.06-1.08.27-1.61.21-.54-.07-1.07-.26-1.6-.32-.53-.06-1.06-.28-1.6-.41-.53-.13-1.03-.47-1.56-.73-.08-.04-.13,0-.11-.16.01-.11.02-.18.07-.21.05.14.06.31.06.31Z"/><line class="cls-2" x1="568.82" y1="62.03" x2="589.69" y2="82.9"/><path class="cls-2" d="m568.91,62.09c.47.1,1.21-.13,1.59.06.38.2.83.33,1.16.57.33.25.49.67.83.91.33.24.39.77.72,1.02.33.25.7.45,1.02.7.33.25,1.03.1,1.36.35.32.25.29.88.6,1.13.32.26.54.61.85.87.31.26.83.32,1.13.59.31.27.79.36,1.09.63.3.28.56.59.85.88.29.28.53.62.81.92.29.29.44.71.72,1,.28.29.68.47.95.77s.43.72.7,1.03c.26.31.6.55.86.87.26.32.5.65.75.97.25.32.49.66.73.99.23.31.59.53.86.87.24.32.58.56.84.9.25.32.28.86.53,1.19.24.34.32.83.54,1.18.24.36.79.41.99.76.22.39.21.95.36,1.33.03.06.05.21-.07.32-.1.08-.15-.03-.2-.05-.38-.15-.72-.39-1.11-.6-.35-.2-.98-.13-1.34-.36-.34-.23-.49-.67-.83-.91-.34-.24-.5-.66-.83-.91-.33-.26-.98-.17-1.3-.42-.34-.26-.63-.56-.94-.79-.36-.27-.54-.72-.89-.99-.35-.28-.7-.55-1.05-.83-.34-.28-.92-.33-1.26-.62-.34-.29-.7-.56-1.03-.86-.33-.3-.67-.59-.99-.89-.32-.31-.23-1.02-.54-1.34-.31-.32-.8-.46-1.1-.78-.3-.32-.59-.66-.89-1-.3-.33-.63-.63-.92-.97-.29-.34-.5-.76-.78-1.1-.28-.35-.42-.82-.7-1.18-.25-.32-.71-.45-.96-.77s-.39-.76-.63-1.09c-.25-.33-.77-.39-1.01-.72-.24-.34-.39-.76-.64-1.09-.25-.33-.38-.77-.57-1.15-.19-.38-.23-.89-.32-1.36-.01-.07-.07-.07.05-.17.08-.07.14-.12.18-.11-.08.13-.18.25-.18.25Z"/><line class="cls-2" x1="568.82" y1="82.9" x2="589.69" y2="62.03"/><path class="cls-2" d="m568.88,82.81c.1-.47-.13-1.21.06-1.59.2-.38.33-.83.57-1.16.25-.33.67-.49.91-.83.24-.33.77-.39,1.02-.72.25-.33.45-.7.7-1.02.25-.33.1-1.03.35-1.36s.88-.29,1.13-.6c.26-.32.61-.54.87-.85.26-.31.32-.83.59-1.13.27-.31.36-.79.63-1.09.28-.3.59-.56.88-.85.28-.29.62-.53.92-.81.29-.29.71-.44,1-.72.29-.28.47-.68.77-.95.3-.27.72-.43,1.03-.7.31-.26.55-.6.87-.86.32-.26.65-.5.97-.75.32-.25.66-.49.99-.73.31-.23.53-.59.87-.86.32-.24.56-.58.9-.84.32-.25.86-.28,1.19-.53.34-.24.83-.32,1.18-.54.35-.24.41-.79.76-.99.39-.22.95-.21,1.33-.36.06-.03.21-.05.32.07.08.1-.03.15-.05.2-.15.38-.39.72-.6,1.11-.2.35-.13.98-.36,1.34-.23.34-.67.49-.91.83-.24.34-.66.5-.91.83-.26.34-.17.98-.42,1.3-.26.34-.56.63-.79.94-.27.36-.72.54-.99.89-.28.35-.55.7-.83,1.05-.28.34-.33.92-.62,1.26-.29.34-.56.7-.86,1.03-.3.33-.58.67-.89.99-.31.32-1.02.23-1.34.54-.32.31-.46.8-.78,1.1-.32.3-.66.59-1,.89-.33.3-.63.63-.97.92-.34.29-.76.5-1.1.78-.35.28-.82.42-1.18.69-.32.25-.45.71-.77.96-.33.25-.76.39-1.09.63-.33.25-.39.77-.72,1.01-.34.24-.76.39-1.09.64-.33.25-.77.38-1.15.57-.38.19-.89.23-1.36.32-.07.01-.07.07-.17-.05-.07-.08-.12-.14-.11-.18.13.08.25.18.25.18Z"/></g></svg>