<?xml version="1.0" encoding="UTF-8"?><svg id="Layer_2" xmlns="http://www.w3.org/2000/svg" viewBox="0 0 116.21 88.05"><defs><style>.cls-1{stroke-linecap:round;}.cls-1,.cls-2{fill:none;stroke:#17245f;stroke-miterlimit:10;stroke-width:2px;}.cls-3{fill:#17245f;stroke-width:0px;}</style></defs><g id="Layer_1-2"><rect class="cls-2" x="39.72" y="1" width="36.51" height="64.63" rx="18.26" ry="18.26"/><line class="cls-1" x1="57.97" y1="12.73" x2="57.97" y2="48.86"/><path class="cls-3" d="m9.64,82.61c0,.77-.13,1.48-.4,2.13s-.64,1.21-1.12,1.68c-.48.47-1.06.84-1.74,1.11-.68.27-1.43.4-2.26.4H0v-10.62h4.13c.83,0,1.58.13,2.26.4.68.27,1.26.64,1.74,1.11.48.47.85,1.03,1.12,1.68s.4,1.36.4,2.12Zm-2.52,0c0-.53-.07-1-.21-1.42-.14-.42-.33-.78-.59-1.08-.25-.29-.57-.52-.94-.68-.37-.16-.79-.24-1.26-.24h-1.65v6.83h1.65c.47,0,.89-.08,1.26-.24s.68-.38.94-.68c.26-.29.45-.65.59-1.08.14-.42.21-.9.21-1.43Z"/><path class="cls-3" d="m14.06,80.25c.5,0,.96.08,1.38.23.42.16.77.38,1.07.68.3.3.53.66.7,1.09.17.43.25.92.25,1.46,0,.17,0,.31-.02.42-.01.11-.04.19-.08.25-.04.06-.09.11-.16.13-.07.02-.15.04-.25.04h-4.36c.07.63.26,1.09.58,1.38.31.28.71.43,1.2.43.26,0,.49-.03.68-.09.19-.06.36-.13.51-.21.15-.08.28-.15.41-.21.12-.06.25-.09.39-.09.18,0,.32.06.41.2l.66.81c-.23.27-.49.48-.75.65s-.55.3-.83.39c-.28.09-.57.16-.85.2-.28.04-.55.05-.81.05-.53,0-1.03-.09-1.49-.26-.46-.17-.87-.43-1.22-.77s-.62-.76-.82-1.27c-.2-.5-.3-1.09-.3-1.76,0-.51.09-.98.26-1.44.17-.45.42-.85.74-1.19s.71-.61,1.17-.81c.46-.2.98-.3,1.56-.3Zm.04,1.56c-.43,0-.77.12-1.01.37s-.4.6-.48,1.06h2.82c0-.18-.02-.35-.07-.52-.05-.17-.12-.32-.23-.46-.11-.13-.24-.24-.41-.32-.17-.08-.38-.12-.62-.12Zm2.9-4.62l-1.9,1.92c-.11.11-.22.19-.32.24-.1.05-.24.07-.41.07h-1.36l.99-1.79c.08-.14.18-.25.29-.32.11-.08.28-.11.51-.11h2.19Z"/><path class="cls-3" d="m19.09,87.93v-6.01l-.5-.1c-.17-.04-.31-.1-.41-.18-.1-.08-.16-.21-.16-.37v-.89h1.06v-.11c0-.46.08-.89.24-1.29s.4-.76.73-1.06c.33-.3.75-.54,1.26-.71.51-.18,1.12-.26,1.83-.26.22,0,.44.01.68.03s.44.05.61.1l-.07,1.15c0,.12-.07.2-.18.24-.11.04-.23.06-.36.06-.51,0-.92.04-1.25.12-.33.08-.59.19-.78.35-.19.15-.33.34-.4.57s-.11.49-.11.79v.04h4.8v7.55h-2.26v-6h-2.46v6h-2.26Z"/><path class="cls-3" d="m30.26,77.01v10.92h-2.26v-10.92h2.26Z"/><path class="cls-3" d="m35.32,80.25c.5,0,.96.08,1.38.23.42.16.77.38,1.07.68.3.3.53.66.7,1.09.17.43.25.92.25,1.46,0,.17,0,.31-.02.42-.01.11-.04.19-.08.25-.04.06-.09.11-.16.13-.07.02-.15.04-.25.04h-4.36c.07.63.26,1.09.58,1.38.31.28.71.43,1.2.43.26,0,.49-.03.68-.09.19-.06.36-.13.51-.21.15-.08.28-.15.41-.21.12-.06.25-.09.39-.09.18,0,.32.06.41.2l.66.81c-.23.27-.49.48-.75.65s-.55.3-.83.39c-.28.09-.57.16-.85.2-.28.04-.55.05-.81.05-.53,0-1.03-.09-1.49-.26-.46-.17-.87-.43-1.22-.77s-.62-.76-.82-1.27c-.2-.5-.3-1.09-.3-1.76,0-.51.09-.98.26-1.44.17-.45.42-.85.74-1.19s.71-.61,1.17-.81c.46-.2.98-.3,1.56-.3Zm.04,1.56c-.43,0-.77.12-1.01.37s-.4.6-.48,1.06h2.82c0-.18-.02-.35-.07-.52-.05-.17-.12-.32-.23-.46-.11-.13-.24-.24-.41-.32-.17-.08-.38-.12-.62-.12Z"/><path class="cls-3" d="m40.02,87.93v-7.56h1.34c.11,0,.21,0,.28.03s.14.05.19.09c.05.04.09.1.12.16s.05.15.07.25l.12.71c.28-.43.59-.77.93-1.01.34-.25.72-.37,1.13-.37.34,0,.62.08.83.25l-.29,1.66c-.02.1-.06.17-.12.21s-.14.06-.23.06c-.08,0-.18-.01-.29-.03-.11-.02-.25-.03-.42-.03-.59,0-1.06.32-1.4.95v4.64h-2.26Z"/><path class="cls-3" d="m53.04,87.93h-2.06l-2.93-7.56h1.88c.16,0,.29.04.4.11.11.08.18.17.22.28l1.05,3.39c.08.28.16.55.24.81.08.26.14.53.19.79.05-.26.12-.52.2-.79.08-.26.16-.53.25-.81l1.09-3.39c.04-.11.11-.21.22-.28.11-.08.23-.11.38-.11h1.79l-2.93,7.56Z"/><path class="cls-3" d="m59.86,80.25c.5,0,.96.08,1.38.23.42.16.77.38,1.07.68.3.3.53.66.7,1.09.17.43.25.92.25,1.46,0,.17,0,.31-.02.42-.01.11-.04.19-.08.25-.04.06-.09.11-.16.13-.07.02-.15.04-.25.04h-4.36c.07.63.26,1.09.58,1.38.31.28.71.43,1.2.43.26,0,.49-.03.68-.09.19-.06.36-.13.51-.21.15-.08.28-.15.41-.21.12-.06.25-.09.39-.09.18,0,.32.06.41.2l.66.81c-.23.27-.49.48-.75.65s-.55.3-.83.39c-.28.09-.57.16-.85.2-.28.04-.55.05-.81.05-.53,0-1.03-.09-1.49-.26-.46-.17-.87-.43-1.22-.77s-.62-.76-.82-1.27c-.2-.5-.3-1.09-.3-1.76,0-.51.09-.98.26-1.44.17-.45.42-.85.74-1.19s.71-.61,1.17-.81c.46-.2.98-.3,1.56-.3Zm.04,1.56c-.43,0-.77.12-1.01.37s-.4.6-.48,1.06h2.82c0-.18-.02-.35-.07-.52-.05-.17-.12-.32-.23-.46-.11-.13-.24-.24-.41-.32-.17-.08-.38-.12-.62-.12Z"/><path class="cls-3" d="m64.56,87.93v-7.56h1.34c.11,0,.21,0,.28.03s.14.05.19.09c.05.04.09.1.12.16s.05.15.07.25l.12.71c.28-.43.59-.77.93-1.01.34-.25.72-.37,1.13-.37.34,0,.62.08.83.25l-.29,1.66c-.02.1-.06.17-.12.21s-.14.06-.23.06c-.08,0-.18-.01-.29-.03-.11-.02-.25-.03-.42-.03-.59,0-1.06.32-1.4.95v4.64h-2.26Z"/><path class="cls-3" d="m75.21,82.02c-.06.09-.12.16-.19.2-.07.04-.15.06-.25.06-.11,0-.21-.02-.32-.07-.11-.05-.22-.1-.35-.15s-.26-.1-.42-.15c-.16-.05-.33-.07-.53-.07-.29,0-.51.05-.66.16-.15.11-.23.26-.23.46,0,.14.05.26.15.35s.23.17.4.24c.17.07.35.14.56.2.21.06.42.13.64.21s.43.17.64.27.4.23.56.39c.17.15.3.34.4.56s.15.48.15.79c0,.37-.07.72-.2,1.04-.14.32-.34.59-.61.82s-.6.41-1,.53-.85.19-1.37.19c-.26,0-.52-.02-.77-.07-.26-.05-.51-.11-.75-.2-.24-.08-.46-.18-.67-.29-.2-.11-.38-.24-.53-.37l.53-.83c.06-.1.14-.17.23-.23.09-.06.2-.08.34-.08.13,0,.25.03.35.09.1.06.22.12.34.19.12.07.26.13.43.19.16.06.37.09.62.09.18,0,.32-.02.45-.05.12-.04.22-.09.29-.15.07-.06.13-.13.16-.21s.05-.16.05-.24c0-.15-.05-.27-.15-.37-.1-.1-.24-.18-.4-.25-.17-.07-.35-.14-.57-.2-.21-.06-.43-.13-.65-.21s-.43-.17-.65-.28c-.21-.11-.4-.25-.56-.42-.17-.17-.3-.37-.4-.62-.1-.24-.15-.54-.15-.88,0-.32.06-.62.19-.92.12-.29.31-.54.56-.76s.56-.39.93-.52c.38-.13.81-.19,1.31-.19.27,0,.54.02.79.07.25.05.49.12.72.2.22.09.43.19.61.31s.35.25.49.39l-.51.79Z"/><path class="cls-3" d="m82.15,77.01v10.92h-2.26v-10.92h2.26Z"/><path class="cls-3" d="m87.21,80.25c.5,0,.96.08,1.38.23.42.16.77.38,1.07.68.3.3.53.66.7,1.09.17.43.25.92.25,1.46,0,.17,0,.31-.02.42-.01.11-.04.19-.08.25-.04.06-.09.11-.16.13-.07.02-.15.04-.25.04h-4.36c.07.63.26,1.09.58,1.38.31.28.71.43,1.2.43.26,0,.49-.03.68-.09.19-.06.36-.13.51-.21.15-.08.28-.15.41-.21.12-.06.25-.09.39-.09.18,0,.32.06.41.2l.66.81c-.23.27-.49.48-.75.65s-.55.3-.83.39c-.28.09-.57.16-.85.2-.28.04-.55.05-.81.05-.53,0-1.03-.09-1.49-.26-.46-.17-.87-.43-1.22-.77s-.62-.76-.82-1.27c-.2-.5-.3-1.09-.3-1.76,0-.51.09-.98.26-1.44.17-.45.42-.85.74-1.19s.71-.61,1.17-.81c.46-.2.98-.3,1.56-.3Zm.04,1.56c-.43,0-.77.12-1.01.37s-.4.6-.48,1.06h2.82c0-.18-.02-.35-.07-.52-.05-.17-.12-.32-.23-.46-.11-.13-.24-.24-.41-.32-.17-.08-.38-.12-.62-.12Z"/><path class="cls-3" d="m94.72,87.93v-10.92h2.26v4.16c.28-.28.6-.5.96-.67.36-.17.78-.25,1.26-.25.39,0,.76.08,1.09.25.33.17.62.42.87.75s.43.73.57,1.21.21,1.02.21,1.62c0,.57-.08,1.09-.24,1.58-.16.48-.38.9-.66,1.25-.28.35-.62.63-1.02.83-.4.2-.83.3-1.32.3-.22,0-.42-.02-.6-.07-.18-.04-.34-.11-.49-.19-.15-.08-.29-.18-.41-.29-.12-.11-.24-.23-.36-.36l-.08.38c-.03.15-.1.26-.19.32s-.21.09-.35.09h-1.5Zm3.69-5.98c-.17,0-.31.02-.45.05-.13.03-.26.08-.37.13-.11.06-.22.13-.32.22-.1.09-.19.19-.29.31v3.21c.17.19.35.32.55.4s.41.11.63.11.4-.04.58-.12c.17-.08.33-.21.46-.4.13-.18.23-.42.3-.71.07-.29.11-.65.11-1.06s-.03-.73-.09-1.01c-.06-.27-.14-.49-.24-.66s-.23-.29-.38-.36c-.15-.07-.31-.11-.49-.11Z"/><path class="cls-3" d="m108.4,87.93c-.21,0-.38-.03-.48-.09s-.2-.18-.27-.37l-.16-.42c-.19.16-.37.3-.55.42-.17.12-.36.22-.54.31-.19.08-.39.15-.6.19-.21.04-.45.06-.7.06-.34,0-.66-.04-.94-.14-.28-.09-.52-.22-.72-.4-.2-.18-.35-.39-.46-.65-.11-.26-.16-.56-.16-.9,0-.27.07-.54.2-.83.14-.28.37-.54.71-.77.33-.23.79-.43,1.36-.58.57-.16,1.29-.23,2.15-.23v-.32c0-.45-.09-.77-.27-.97-.18-.2-.44-.3-.78-.3-.27,0-.49.03-.66.09s-.32.12-.46.2c-.13.07-.26.14-.39.2-.13.06-.28.09-.45.09-.16,0-.29-.04-.4-.11-.11-.08-.2-.17-.26-.28l-.41-.71c.46-.4.96-.7,1.52-.9.56-.2,1.15-.3,1.79-.3.46,0,.87.07,1.24.22.37.15.68.35.93.62.26.26.45.58.59.94.14.37.2.76.2,1.2v4.73h-1.04Zm-2.6-1.38c.29,0,.55-.05.77-.15.22-.1.44-.27.66-.5v-1.04c-.45,0-.82.03-1.12.09s-.52.13-.69.22c-.17.09-.29.19-.35.3-.07.11-.1.24-.1.37,0,.26.07.44.21.55.14.11.35.16.62.16Z"/><path class="cls-3" d="m115.66,82.02c-.06.09-.12.16-.19.2-.07.04-.15.06-.25.06-.11,0-.21-.02-.32-.07-.11-.05-.22-.1-.35-.15s-.26-.1-.42-.15c-.16-.05-.33-.07-.53-.07-.29,0-.51.05-.66.16-.15.11-.23.26-.23.46,0,.14.05.26.15.35s.23.17.4.24c.17.07.35.14.56.2.21.06.42.13.64.21s.43.17.64.27.4.23.56.39c.17.15.3.34.4.56s.15.48.15.79c0,.37-.07.72-.2,1.04-.14.32-.34.59-.61.82s-.6.41-1,.53-.85.19-1.37.19c-.26,0-.52-.02-.77-.07-.26-.05-.51-.11-.75-.2-.24-.08-.46-.18-.67-.29-.2-.11-.38-.24-.53-.37l.53-.83c.06-.1.14-.17.23-.23.09-.06.2-.08.34-.08.13,0,.25.03.35.09.1.06.22.12.34.19.12.07.26.13.43.19.16.06.37.09.62.09.18,0,.32-.02.45-.05.12-.04.22-.09.29-.15.07-.06.13-.13.16-.21s.05-.16.05-.24c0-.15-.05-.27-.15-.37-.1-.1-.24-.18-.4-.25-.17-.07-.35-.14-.57-.2-.21-.06-.43-.13-.65-.21s-.43-.17-.65-.28c-.21-.11-.4-.25-.56-.42-.17-.17-.3-.37-.4-.62-.1-.24-.15-.54-.15-.88,0-.32.06-.62.19-.92.12-.29.31-.54.56-.76s.56-.39.93-.52c.38-.13.81-.19,1.31-.19.27,0,.54.02.79.07.25.05.49.12.72.2.22.09.43.19.61.31s.35.25.49.39l-.51.79Z"/><polyline class="cls-1" points="66.84 42.1 57.97 50.97 49.1 42.1"/></g></svg>